<svg  viewBox="0 0 244 231" fill="none" xmlns="http://www.w3.org/2000/svg">
<path d="M52.3429 14.0063C63.1147 1.89171 76.5652 -2.15928 92.6942 1.85339C108.823 5.86605 122.599 10.2179 134.021 14.9089C145.444 19.5999 160.905 20.2522 180.405 16.8656C199.905 13.479 208.97 21.1983 207.601 40.0233C206.232 58.8484 210.582 73.9686 220.651 85.3839C230.721 96.7993 237.762 109.899 241.777 124.684C245.791 139.468 243.42 153.253 234.664 166.037C225.908 178.821 217.487 192.613 209.401 207.414C201.315 222.214 188.868 229.961 172.061 230.655C155.253 231.349 140.47 226.662 127.71 216.595C114.95 206.528 99.8243 206.211 82.3333 215.645C64.8424 225.08 51.0623 224.089 40.9932 212.674C30.9241 201.258 27.9177 186.809 31.9739 169.325C36.0301 151.841 29.998 137.731 13.8777 126.996C-2.24263 116.261 -4.24461 104.835 7.87176 92.7183C19.9881 80.602 27.7361 67.4829 31.1157 53.361C34.4953 39.2392 41.571 26.121 52.3429 14.0063Z" fill="black"/>
</svg>
